<svg width="420" height="46" viewBox="0 0 420 46" fill="none" xmlns="http://www.w3.org/2000/svg">
<rect width="420" height="46" rx="23" fill="#2D00F7"/>
<path d="M172.943 21.0795C172.848 20.7727 172.718 20.4981 172.551 20.2557C172.388 20.0095 172.191 19.7992 171.96 19.625C171.733 19.4508 171.472 19.3201 171.176 19.233C170.881 19.142 170.559 19.0966 170.21 19.0966C169.585 19.0966 169.028 19.2538 168.54 19.5682C168.051 19.8826 167.667 20.3447 167.386 20.9545C167.11 21.5606 166.972 22.2992 166.972 23.1705C166.972 24.0492 167.11 24.7936 167.386 25.4034C167.663 26.0133 168.047 26.4773 168.54 26.7955C169.032 27.1098 169.604 27.267 170.256 27.267C170.847 27.267 171.358 27.1534 171.79 26.9261C172.225 26.6989 172.561 26.3769 172.795 25.9602C173.03 25.5398 173.148 25.0473 173.148 24.483L173.625 24.5568H170.466V22.9091H175.188V24.3068C175.188 25.303 174.975 26.1648 174.551 26.892C174.127 27.6193 173.544 28.1799 172.801 28.5739C172.059 28.964 171.206 29.1591 170.244 29.1591C169.172 29.1591 168.231 28.9186 167.42 28.4375C166.614 27.9527 165.983 27.2652 165.528 26.375C165.078 25.4811 164.852 24.4205 164.852 23.1932C164.852 22.2538 164.985 21.4148 165.25 20.6761C165.519 19.9375 165.894 19.3106 166.375 18.7955C166.856 18.2765 167.42 17.8826 168.068 17.6136C168.716 17.3409 169.42 17.2045 170.182 17.2045C170.826 17.2045 171.426 17.2992 171.983 17.4886C172.54 17.6742 173.034 17.9394 173.466 18.2841C173.902 18.6288 174.259 19.0379 174.54 19.5114C174.82 19.9848 175.004 20.5076 175.091 21.0795H172.943ZM181.149 29.1705C180.274 29.1705 179.518 28.9886 178.882 28.625C178.249 28.2576 177.762 27.7386 177.421 27.0682C177.08 26.3939 176.91 25.6004 176.91 24.6875C176.91 23.7898 177.08 23.0019 177.421 22.3239C177.766 21.642 178.247 21.1117 178.864 20.733C179.482 20.3504 180.207 20.1591 181.041 20.1591C181.579 20.1591 182.086 20.2462 182.563 20.4205C183.044 20.5909 183.469 20.8561 183.836 21.2159C184.207 21.5758 184.499 22.0341 184.711 22.5909C184.923 23.1439 185.029 23.803 185.029 24.5682V25.1989H177.876V23.8125H183.058C183.054 23.4186 182.969 23.0682 182.802 22.7614C182.635 22.4508 182.402 22.2064 182.103 22.0284C181.808 21.8504 181.463 21.7614 181.069 21.7614C180.649 21.7614 180.279 21.8636 179.961 22.0682C179.643 22.2689 179.395 22.5341 179.217 22.8636C179.043 23.1894 178.954 23.5473 178.95 23.9375V25.1477C178.95 25.6553 179.043 26.0909 179.228 26.4545C179.414 26.8144 179.673 27.0909 180.007 27.2841C180.34 27.4735 180.73 27.5682 181.177 27.5682C181.476 27.5682 181.747 27.5265 181.989 27.4432C182.232 27.3561 182.442 27.2292 182.62 27.0625C182.798 26.8958 182.933 26.6894 183.024 26.4432L184.944 26.6591C184.823 27.1667 184.592 27.6098 184.251 27.9886C183.914 28.3636 183.482 28.6553 182.955 28.8636C182.429 29.0682 181.827 29.1705 181.149 29.1705ZM191.277 20.2727V21.8636H186.26V20.2727H191.277ZM187.499 18.1818H189.556V26.375C189.556 26.6515 189.597 26.8636 189.681 27.0114C189.768 27.1553 189.881 27.2538 190.022 27.3068C190.162 27.3598 190.317 27.3864 190.487 27.3864C190.616 27.3864 190.734 27.3769 190.84 27.358C190.95 27.339 191.033 27.322 191.09 27.3068L191.436 28.9148C191.327 28.9527 191.169 28.9943 190.965 29.0398C190.764 29.0852 190.518 29.1117 190.226 29.1193C189.711 29.1345 189.247 29.0568 188.834 28.8864C188.421 28.7121 188.094 28.4432 187.851 28.0795C187.612 27.7159 187.495 27.2614 187.499 26.7159V18.1818ZM203.681 20.5625C203.628 20.0663 203.404 19.6799 203.011 19.4034C202.62 19.1269 202.113 18.9886 201.488 18.9886C201.048 18.9886 200.671 19.0549 200.357 19.1875C200.043 19.3201 199.802 19.5 199.636 19.7273C199.469 19.9545 199.384 20.214 199.38 20.5057C199.38 20.7481 199.435 20.9583 199.545 21.1364C199.658 21.3144 199.812 21.4659 200.005 21.5909C200.198 21.7121 200.412 21.8144 200.647 21.8977C200.882 21.9811 201.118 22.0511 201.357 22.108L202.448 22.3807C202.887 22.483 203.31 22.6212 203.715 22.7955C204.124 22.9697 204.49 23.1894 204.812 23.4545C205.137 23.7197 205.395 24.0398 205.584 24.4148C205.774 24.7898 205.868 25.2292 205.868 25.733C205.868 26.4148 205.694 27.0152 205.346 27.5341C204.997 28.0492 204.493 28.4527 203.834 28.7443C203.179 29.0322 202.386 29.1761 201.454 29.1761C200.548 29.1761 199.762 29.036 199.096 28.7557C198.433 28.4754 197.914 28.0663 197.539 27.5284C197.168 26.9905 196.967 26.3352 196.937 25.5625H199.011C199.041 25.9678 199.166 26.3049 199.386 26.5739C199.605 26.8428 199.891 27.0436 200.243 27.1761C200.6 27.3087 200.997 27.375 201.437 27.375C201.895 27.375 202.296 27.3068 202.641 27.1705C202.99 27.0303 203.262 26.8371 203.459 26.5909C203.656 26.3409 203.757 26.0492 203.761 25.7159C203.757 25.4129 203.668 25.1629 203.493 24.9659C203.319 24.7652 203.075 24.5985 202.761 24.4659C202.45 24.3295 202.086 24.2083 201.67 24.1023L200.346 23.7614C199.387 23.5152 198.63 23.142 198.073 22.642C197.52 22.1383 197.243 21.4697 197.243 20.6364C197.243 19.9508 197.429 19.3504 197.8 18.8352C198.175 18.3201 198.685 17.9205 199.329 17.6364C199.973 17.3485 200.702 17.2045 201.516 17.2045C202.342 17.2045 203.065 17.3485 203.687 17.6364C204.312 17.9205 204.802 18.3163 205.158 18.8239C205.514 19.3277 205.698 19.9072 205.709 20.5625H203.681ZM212.165 20.2727V21.8636H207.148V20.2727H212.165ZM208.386 18.1818H210.443V26.375C210.443 26.6515 210.485 26.8636 210.568 27.0114C210.655 27.1553 210.769 27.2538 210.909 27.3068C211.049 27.3598 211.205 27.3864 211.375 27.3864C211.504 27.3864 211.621 27.3769 211.727 27.358C211.837 27.339 211.92 27.322 211.977 27.3068L212.324 28.9148C212.214 28.9527 212.057 28.9943 211.852 29.0398C211.652 29.0852 211.405 29.1117 211.114 29.1193C210.598 29.1345 210.134 29.0568 209.722 28.8864C209.309 28.7121 208.981 28.4432 208.739 28.0795C208.5 27.7159 208.383 27.2614 208.386 26.7159V18.1818ZM216.546 29.1761C215.993 29.1761 215.495 29.0777 215.052 28.8807C214.613 28.6799 214.264 28.3845 214.007 27.9943C213.753 27.6042 213.626 27.1231 213.626 26.5511C213.626 26.0587 213.717 25.6515 213.899 25.3295C214.08 25.0076 214.329 24.75 214.643 24.5568C214.957 24.3636 215.311 24.2178 215.705 24.1193C216.103 24.017 216.514 23.9432 216.938 23.8977C217.45 23.8447 217.864 23.7973 218.183 23.7557C218.501 23.7102 218.732 23.642 218.876 23.5511C219.024 23.4564 219.097 23.3106 219.097 23.1136V23.0795C219.097 22.6515 218.971 22.3201 218.717 22.0852C218.463 21.8504 218.097 21.733 217.62 21.733C217.116 21.733 216.717 21.8428 216.421 22.0625C216.13 22.2822 215.933 22.5417 215.83 22.8409L213.91 22.5682C214.061 22.0379 214.311 21.5947 214.66 21.2386C215.008 20.8788 215.435 20.6098 215.938 20.4318C216.442 20.25 216.999 20.1591 217.609 20.1591C218.029 20.1591 218.448 20.2083 218.864 20.3068C219.281 20.4053 219.662 20.5682 220.007 20.7955C220.351 21.0189 220.628 21.3239 220.836 21.7102C221.048 22.0966 221.154 22.5795 221.154 23.1591V29H219.177V27.8011H219.109C218.984 28.0436 218.808 28.2708 218.58 28.483C218.357 28.6913 218.075 28.8598 217.734 28.9886C217.397 29.1136 217.001 29.1761 216.546 29.1761ZM217.08 27.6648C217.493 27.6648 217.851 27.5833 218.154 27.4205C218.457 27.2538 218.69 27.0341 218.853 26.7614C219.02 26.4886 219.103 26.1913 219.103 25.8693V24.8409C219.039 24.8939 218.929 24.9432 218.774 24.9886C218.622 25.0341 218.452 25.0739 218.262 25.108C218.073 25.142 217.885 25.1723 217.7 25.1989C217.514 25.2254 217.353 25.2481 217.217 25.267C216.91 25.3087 216.635 25.3769 216.393 25.4716C216.15 25.5663 215.959 25.6989 215.819 25.8693C215.679 26.036 215.609 26.2519 215.609 26.517C215.609 26.8958 215.747 27.1818 216.024 27.375C216.3 27.5682 216.652 27.6648 217.08 27.6648ZM223.372 29V20.2727H225.367V21.7273H225.458C225.617 21.2235 225.889 20.8352 226.276 20.5625C226.666 20.286 227.111 20.1477 227.611 20.1477C227.725 20.1477 227.852 20.1534 227.992 20.1648C228.136 20.1723 228.255 20.1856 228.35 20.2045V22.0966C228.263 22.0663 228.124 22.0398 227.935 22.017C227.749 21.9905 227.569 21.9773 227.395 21.9773C227.02 21.9773 226.683 22.0587 226.384 22.2216C226.088 22.3807 225.855 22.6023 225.685 22.8864C225.514 23.1705 225.429 23.4981 225.429 23.8693V29H223.372ZM234.693 20.2727V21.8636H229.676V20.2727H234.693ZM230.914 18.1818H232.971V26.375C232.971 26.6515 233.013 26.8636 233.096 27.0114C233.183 27.1553 233.297 27.2538 233.437 27.3068C233.577 27.3598 233.733 27.3864 233.903 27.3864C234.032 27.3864 234.149 27.3769 234.255 27.358C234.365 27.339 234.449 27.322 234.505 27.3068L234.852 28.9148C234.742 28.9527 234.585 28.9943 234.38 29.0398C234.18 29.0852 233.933 29.1117 233.642 29.1193C233.127 29.1345 232.663 29.0568 232.25 28.8864C231.837 28.7121 231.509 28.4432 231.267 28.0795C231.028 27.7159 230.911 27.2614 230.914 26.7159V18.1818ZM240.333 29.1705C239.458 29.1705 238.702 28.9886 238.066 28.625C237.433 28.2576 236.947 27.7386 236.606 27.0682C236.265 26.3939 236.094 25.6004 236.094 24.6875C236.094 23.7898 236.265 23.0019 236.606 22.3239C236.95 21.642 237.431 21.1117 238.049 20.733C238.666 20.3504 239.392 20.1591 240.225 20.1591C240.763 20.1591 241.27 20.2462 241.748 20.4205C242.229 20.5909 242.653 20.8561 243.02 21.2159C243.392 21.5758 243.683 22.0341 243.895 22.5909C244.108 23.1439 244.214 23.803 244.214 24.5682V25.1989H237.06V23.8125H242.242C242.238 23.4186 242.153 23.0682 241.986 22.7614C241.82 22.4508 241.587 22.2064 241.287 22.0284C240.992 21.8504 240.647 21.7614 240.253 21.7614C239.833 21.7614 239.464 21.8636 239.145 22.0682C238.827 22.2689 238.579 22.5341 238.401 22.8636C238.227 23.1894 238.138 23.5473 238.134 23.9375V25.1477C238.134 25.6553 238.227 26.0909 238.412 26.4545C238.598 26.8144 238.858 27.0909 239.191 27.2841C239.524 27.4735 239.914 27.5682 240.361 27.5682C240.661 27.5682 240.931 27.5265 241.174 27.4432C241.416 27.3561 241.627 27.2292 241.805 27.0625C241.983 26.8958 242.117 26.6894 242.208 26.4432L244.128 26.6591C244.007 27.1667 243.776 27.6098 243.435 27.9886C243.098 28.3636 242.666 28.6553 242.14 28.8636C241.613 29.0682 241.011 29.1705 240.333 29.1705ZM249.342 29.1534C248.657 29.1534 248.043 28.9773 247.501 28.625C246.96 28.2727 246.532 27.7614 246.217 27.0909C245.903 26.4205 245.746 25.6061 245.746 24.6477C245.746 23.678 245.905 22.8598 246.223 22.1932C246.545 21.5227 246.979 21.017 247.524 20.6761C248.07 20.3314 248.678 20.1591 249.348 20.1591C249.859 20.1591 250.28 20.2462 250.609 20.4205C250.939 20.5909 251.2 20.7973 251.393 21.0398C251.587 21.2784 251.736 21.5038 251.842 21.7159H251.928V17.3636H253.99V29H251.967V27.625H251.842C251.736 27.8371 251.583 28.0625 251.382 28.3011C251.181 28.536 250.916 28.7367 250.587 28.9034C250.257 29.0701 249.842 29.1534 249.342 29.1534ZM249.916 27.4659C250.352 27.4659 250.723 27.3485 251.03 27.1136C251.337 26.875 251.57 26.5436 251.729 26.1193C251.888 25.6951 251.967 25.2008 251.967 24.6364C251.967 24.072 251.888 23.5814 251.729 23.1648C251.573 22.7481 251.342 22.4242 251.036 22.1932C250.732 21.9621 250.359 21.8466 249.916 21.8466C249.458 21.8466 249.075 21.9659 248.768 22.2045C248.462 22.4432 248.231 22.7727 248.075 23.1932C247.92 23.6136 247.842 24.0947 247.842 24.6364C247.842 25.1818 247.92 25.6686 248.075 26.0966C248.234 26.5208 248.467 26.8561 248.774 27.1023C249.085 27.3447 249.465 27.4659 249.916 27.4659Z" fill="white"/>
</svg>
