<svg width="25" height="25" viewBox="0 0 25 25" fill="none" xmlns="http://www.w3.org/2000/svg">
<g id="vuesax/bulk/award">
<g id="award">
<path id="Vector" opacity="0.4" d="M18.4501 8.20998L18.3101 8.12998L16.9201 7.32998L14.0501 5.66998C13.1701 5.15998 11.8301 5.15998 10.9501 5.66998L8.0801 7.32998L6.6901 8.13998L6.5101 8.23998C4.7201 9.43998 4.6001 9.65998 4.6001 11.59V16.2C4.6001 18.13 4.7201 18.35 6.5501 19.58L10.9501 22.12C11.3901 22.38 11.9401 22.5 12.5001 22.5C13.0501 22.5 13.6101 22.38 14.0501 22.12L18.4901 19.55C20.2801 18.35 20.4001 18.13 20.4001 16.2V11.59C20.4001 9.65998 20.2801 9.43998 18.4501 8.20998Z" fill="#2D00F7"/>
<path id="Vector_2" d="M6.68994 8.14L8.07994 7.33L10.8199 5.75L10.9499 5.67C11.8299 5.16 13.1699 5.16 14.0499 5.67L14.1799 5.75L16.9199 7.33L18.3099 8.13V5.99C18.3099 3.74 17.0699 2.5 14.8199 2.5H10.1699C7.91994 2.5 6.68994 3.74 6.68994 5.99V8.14Z" fill="#2D00F7"/>
<path id="Vector_3" d="M15.3402 13.84L14.7202 14.6C14.6202 14.71 14.5502 14.93 14.5602 15.08L14.6202 16.06C14.6602 16.66 14.2302 16.97 13.6702 16.75L12.7602 16.39C12.6202 16.34 12.3802 16.34 12.2402 16.39L11.3302 16.75C10.7702 16.97 10.3402 16.66 10.3802 16.06L10.4402 15.08C10.4502 14.93 10.3802 14.71 10.2802 14.6L9.66023 13.84C9.27024 13.38 9.44024 12.87 10.0202 12.72L10.9702 12.48C11.1202 12.44 11.3002 12.3 11.3802 12.17L11.9102 11.35C12.2402 10.84 12.7602 10.84 13.0902 11.35L13.6202 12.17C13.7002 12.3 13.8802 12.44 14.0302 12.48L14.9802 12.72C15.5602 12.87 15.7302 13.38 15.3402 13.84Z" fill="#2D00F7"/>
</g>
</g>
</svg>
